<mxfile host="app.diagrams.net" agent="Mozilla/5.0 (Windows NT 10.0; Win64; x64) AppleWebKit/537.36 (KHTML, like Gecko) Chrome/134.0.0.0 Safari/537.36" version="26.1.3">
  <diagram name="Page-1" id="tJaGEDg5x1dXbt3UqVQ3">
    <mxGraphModel dx="1480" dy="778" grid="0" gridSize="10" guides="1" tooltips="1" connect="1" arrows="1" fold="1" page="0" pageScale="1" pageWidth="850" pageHeight="1100" math="0" shadow="0">
      <root>
        <mxCell id="0" />
        <mxCell id="1" parent="0" />
        <mxCell id="3gpcOzhI5gHGoJ087RMz-1" value="" style="edgeStyle=orthogonalEdgeStyle;rounded=0;orthogonalLoop=1;jettySize=auto;html=1;entryX=0;entryY=0.5;entryDx=0;entryDy=0;" edge="1" parent="1" target="3gpcOzhI5gHGoJ087RMz-4">
          <mxGeometry relative="1" as="geometry">
            <mxPoint x="272.99999999999994" y="53.29803282001941" as="sourcePoint" />
            <mxPoint x="347.04248171318517" y="53.29803282001941" as="targetPoint" />
            <Array as="points">
              <mxPoint x="273" y="53" />
            </Array>
          </mxGeometry>
        </mxCell>
        <mxCell id="3gpcOzhI5gHGoJ087RMz-2" value="&lt;b&gt;INIT:&lt;/b&gt;&lt;div&gt;P1.0&amp;nbsp; &amp;nbsp; &amp;nbsp; &amp;nbsp; Joystick ADC Input&lt;/div&gt;&lt;div&gt;P1.1&amp;nbsp;&lt;span style=&quot;white-space: pre;&quot;&gt;&#x9;&lt;/span&gt;&amp;nbsp;Push Button Input&lt;/div&gt;&lt;div&gt;&lt;div&gt;P1.2&amp;nbsp; &amp;nbsp; &amp;nbsp; &amp;nbsp; &amp;nbsp; &amp;nbsp; LED Matrix SDA&lt;/div&gt;&lt;/div&gt;&lt;div&gt;P1.3&amp;nbsp; &amp;nbsp; &amp;nbsp; &amp;nbsp; &amp;nbsp; &amp;nbsp; LED Matrix SCL&lt;/div&gt;&lt;div&gt;P4.6&amp;nbsp; &amp;nbsp; &amp;nbsp; &amp;nbsp; OLED Display SDA&lt;/div&gt;&lt;div&gt;P4.7&amp;nbsp; &amp;nbsp; &amp;nbsp; &amp;nbsp; OLED Display SCL&lt;/div&gt;&lt;div&gt;TimerB0&amp;nbsp; &amp;nbsp; &amp;nbsp;Block Drop Timer&lt;/div&gt;" style="shape=document;whiteSpace=wrap;html=1;boundedLbl=1;size=0.09688207137005818;align=left;" vertex="1" parent="1">
          <mxGeometry x="116" y="26" width="157" height="136" as="geometry" />
        </mxCell>
        <mxCell id="3gpcOzhI5gHGoJ087RMz-37" value="" style="edgeStyle=orthogonalEdgeStyle;rounded=0;orthogonalLoop=1;jettySize=auto;html=1;" edge="1" parent="1" source="3gpcOzhI5gHGoJ087RMz-4" target="3gpcOzhI5gHGoJ087RMz-36">
          <mxGeometry relative="1" as="geometry" />
        </mxCell>
        <mxCell id="3gpcOzhI5gHGoJ087RMz-4" value="main" style="ellipse;whiteSpace=wrap;html=1;" vertex="1" parent="1">
          <mxGeometry x="336" y="26" width="120" height="55" as="geometry" />
        </mxCell>
        <mxCell id="3gpcOzhI5gHGoJ087RMz-46" value="" style="edgeStyle=orthogonalEdgeStyle;rounded=0;orthogonalLoop=1;jettySize=auto;html=1;" edge="1" parent="1" source="3gpcOzhI5gHGoJ087RMz-30" target="3gpcOzhI5gHGoJ087RMz-45">
          <mxGeometry relative="1" as="geometry" />
        </mxCell>
        <mxCell id="3gpcOzhI5gHGoJ087RMz-30" value="read_inputs()" style="shape=parallelogram;perimeter=parallelogramPerimeter;whiteSpace=wrap;html=1;fixedSize=1;" vertex="1" parent="1">
          <mxGeometry x="336" y="358" width="120" height="45" as="geometry" />
        </mxCell>
        <mxCell id="3gpcOzhI5gHGoJ087RMz-33" value="" style="curved=1;endArrow=classic;html=1;rounded=0;exitX=1;exitY=1;exitDx=0;exitDy=0;entryX=1;entryY=0;entryDx=0;entryDy=0;" edge="1" parent="1">
          <mxGeometry width="50" height="50" relative="1" as="geometry">
            <mxPoint x="425" y="246" as="sourcePoint" />
            <mxPoint x="425" y="206" as="targetPoint" />
            <Array as="points">
              <mxPoint x="457" y="257" />
              <mxPoint x="495" y="245" />
              <mxPoint x="482" y="205" />
              <mxPoint x="458" y="197" />
            </Array>
          </mxGeometry>
        </mxCell>
        <mxCell id="3gpcOzhI5gHGoJ087RMz-34" value="No" style="edgeLabel;html=1;align=center;verticalAlign=middle;resizable=0;points=[];" vertex="1" connectable="0" parent="3gpcOzhI5gHGoJ087RMz-33">
          <mxGeometry x="0.2654" y="1" relative="1" as="geometry">
            <mxPoint as="offset" />
          </mxGeometry>
        </mxCell>
        <mxCell id="3gpcOzhI5gHGoJ087RMz-39" value="" style="edgeStyle=orthogonalEdgeStyle;rounded=0;orthogonalLoop=1;jettySize=auto;html=1;" edge="1" parent="1" source="3gpcOzhI5gHGoJ087RMz-36" target="3gpcOzhI5gHGoJ087RMz-38">
          <mxGeometry relative="1" as="geometry" />
        </mxCell>
        <mxCell id="3gpcOzhI5gHGoJ087RMz-36" value="Display Start Screen on OLED Display" style="rounded=1;whiteSpace=wrap;html=1;arcSize=30;" vertex="1" parent="1">
          <mxGeometry x="336" y="104" width="120" height="60" as="geometry" />
        </mxCell>
        <mxCell id="3gpcOzhI5gHGoJ087RMz-55" value="" style="edgeStyle=orthogonalEdgeStyle;rounded=0;orthogonalLoop=1;jettySize=auto;html=1;" edge="1" parent="1" source="3gpcOzhI5gHGoJ087RMz-38" target="3gpcOzhI5gHGoJ087RMz-54">
          <mxGeometry relative="1" as="geometry" />
        </mxCell>
        <mxCell id="3gpcOzhI5gHGoJ087RMz-38" value="Is PB pressed?" style="rhombus;whiteSpace=wrap;html=1;" vertex="1" parent="1">
          <mxGeometry x="336" y="187" width="120" height="80" as="geometry" />
        </mxCell>
        <mxCell id="3gpcOzhI5gHGoJ087RMz-48" value="" style="edgeStyle=orthogonalEdgeStyle;rounded=0;orthogonalLoop=1;jettySize=auto;html=1;" edge="1" parent="1" source="3gpcOzhI5gHGoJ087RMz-45" target="3gpcOzhI5gHGoJ087RMz-47">
          <mxGeometry relative="1" as="geometry" />
        </mxCell>
        <mxCell id="3gpcOzhI5gHGoJ087RMz-45" value="process_inputs()" style="shape=parallelogram;perimeter=parallelogramPerimeter;whiteSpace=wrap;html=1;fixedSize=1;" vertex="1" parent="1">
          <mxGeometry x="336" y="426" width="120" height="45" as="geometry" />
        </mxCell>
        <mxCell id="3gpcOzhI5gHGoJ087RMz-52" value="" style="edgeStyle=orthogonalEdgeStyle;rounded=0;orthogonalLoop=1;jettySize=auto;html=1;" edge="1" parent="1" source="3gpcOzhI5gHGoJ087RMz-47" target="3gpcOzhI5gHGoJ087RMz-51">
          <mxGeometry relative="1" as="geometry" />
        </mxCell>
        <mxCell id="3gpcOzhI5gHGoJ087RMz-53" value="Yes" style="edgeLabel;html=1;align=center;verticalAlign=middle;resizable=0;points=[];" vertex="1" connectable="0" parent="3gpcOzhI5gHGoJ087RMz-52">
          <mxGeometry x="0.4121" y="-1" relative="1" as="geometry">
            <mxPoint as="offset" />
          </mxGeometry>
        </mxCell>
        <mxCell id="3gpcOzhI5gHGoJ087RMz-47" value="Timer expired?" style="rhombus;whiteSpace=wrap;html=1;" vertex="1" parent="1">
          <mxGeometry x="336" y="495" width="120" height="80" as="geometry" />
        </mxCell>
        <mxCell id="3gpcOzhI5gHGoJ087RMz-49" value="" style="curved=1;endArrow=classic;html=1;rounded=0;exitX=1;exitY=1;exitDx=0;exitDy=0;entryX=1;entryY=0;entryDx=0;entryDy=0;" edge="1" parent="1">
          <mxGeometry width="50" height="50" relative="1" as="geometry">
            <mxPoint x="428" y="554" as="sourcePoint" />
            <mxPoint x="428" y="514" as="targetPoint" />
            <Array as="points">
              <mxPoint x="460" y="565" />
              <mxPoint x="498" y="553" />
              <mxPoint x="485" y="513" />
              <mxPoint x="461" y="505" />
            </Array>
          </mxGeometry>
        </mxCell>
        <mxCell id="3gpcOzhI5gHGoJ087RMz-50" value="No" style="edgeLabel;html=1;align=center;verticalAlign=middle;resizable=0;points=[];" vertex="1" connectable="0" parent="3gpcOzhI5gHGoJ087RMz-49">
          <mxGeometry x="0.2654" y="1" relative="1" as="geometry">
            <mxPoint as="offset" />
          </mxGeometry>
        </mxCell>
        <mxCell id="3gpcOzhI5gHGoJ087RMz-74" value="" style="edgeStyle=orthogonalEdgeStyle;rounded=0;orthogonalLoop=1;jettySize=auto;html=1;" edge="1" parent="1" source="3gpcOzhI5gHGoJ087RMz-51" target="3gpcOzhI5gHGoJ087RMz-72">
          <mxGeometry relative="1" as="geometry" />
        </mxCell>
        <mxCell id="3gpcOzhI5gHGoJ087RMz-51" value="update_matrix()" style="shape=parallelogram;perimeter=parallelogramPerimeter;whiteSpace=wrap;html=1;fixedSize=1;" vertex="1" parent="1">
          <mxGeometry x="336" y="599" width="120" height="45" as="geometry" />
        </mxCell>
        <mxCell id="3gpcOzhI5gHGoJ087RMz-54" value="drop_block()" style="shape=parallelogram;perimeter=parallelogramPerimeter;whiteSpace=wrap;html=1;fixedSize=1;" vertex="1" parent="1">
          <mxGeometry x="336" y="290" width="120" height="45" as="geometry" />
        </mxCell>
        <mxCell id="3gpcOzhI5gHGoJ087RMz-68" value="" style="edgeStyle=orthogonalEdgeStyle;rounded=0;orthogonalLoop=1;jettySize=auto;html=1;" edge="1" parent="1">
          <mxGeometry relative="1" as="geometry">
            <mxPoint x="395.93" y="335" as="sourcePoint" />
            <mxPoint x="395.93" y="358" as="targetPoint" />
          </mxGeometry>
        </mxCell>
        <mxCell id="3gpcOzhI5gHGoJ087RMz-78" value="" style="edgeStyle=orthogonalEdgeStyle;rounded=0;orthogonalLoop=1;jettySize=auto;html=1;" edge="1" parent="1" source="3gpcOzhI5gHGoJ087RMz-72" target="3gpcOzhI5gHGoJ087RMz-77">
          <mxGeometry relative="1" as="geometry" />
        </mxCell>
        <mxCell id="3gpcOzhI5gHGoJ087RMz-79" value="No" style="edgeLabel;html=1;align=center;verticalAlign=middle;resizable=0;points=[];" vertex="1" connectable="0" parent="3gpcOzhI5gHGoJ087RMz-78">
          <mxGeometry x="0.3319" y="2" relative="1" as="geometry">
            <mxPoint as="offset" />
          </mxGeometry>
        </mxCell>
        <mxCell id="3gpcOzhI5gHGoJ087RMz-83" value="" style="edgeStyle=orthogonalEdgeStyle;rounded=0;orthogonalLoop=1;jettySize=auto;html=1;" edge="1" parent="1" source="3gpcOzhI5gHGoJ087RMz-72" target="3gpcOzhI5gHGoJ087RMz-82">
          <mxGeometry relative="1" as="geometry" />
        </mxCell>
        <mxCell id="3gpcOzhI5gHGoJ087RMz-72" value="Game over?" style="rhombus;whiteSpace=wrap;html=1;" vertex="1" parent="1">
          <mxGeometry x="336" y="668" width="120" height="80" as="geometry" />
        </mxCell>
        <mxCell id="3gpcOzhI5gHGoJ087RMz-77" value="update_display()" style="shape=parallelogram;perimeter=parallelogramPerimeter;whiteSpace=wrap;html=1;fixedSize=1;" vertex="1" parent="1">
          <mxGeometry x="478" y="685.5" width="120" height="45" as="geometry" />
        </mxCell>
        <mxCell id="3gpcOzhI5gHGoJ087RMz-80" value="" style="curved=1;endArrow=classic;html=1;rounded=0;exitX=0.5;exitY=0;exitDx=0;exitDy=0;entryX=1;entryY=0.5;entryDx=0;entryDy=0;" edge="1" parent="1" source="3gpcOzhI5gHGoJ087RMz-77" target="3gpcOzhI5gHGoJ087RMz-54">
          <mxGeometry width="50" height="50" relative="1" as="geometry">
            <mxPoint x="582" y="515" as="sourcePoint" />
            <mxPoint x="632" y="465" as="targetPoint" />
            <Array as="points">
              <mxPoint x="604" y="333" />
            </Array>
          </mxGeometry>
        </mxCell>
        <mxCell id="3gpcOzhI5gHGoJ087RMz-85" value="" style="edgeStyle=orthogonalEdgeStyle;rounded=0;orthogonalLoop=1;jettySize=auto;html=1;" edge="1" parent="1" source="3gpcOzhI5gHGoJ087RMz-82" target="3gpcOzhI5gHGoJ087RMz-84">
          <mxGeometry relative="1" as="geometry" />
        </mxCell>
        <mxCell id="3gpcOzhI5gHGoJ087RMz-82" value="Display End Screen on OLED Display" style="rounded=1;whiteSpace=wrap;html=1;arcSize=30;" vertex="1" parent="1">
          <mxGeometry x="336" y="772" width="120" height="60" as="geometry" />
        </mxCell>
        <mxCell id="3gpcOzhI5gHGoJ087RMz-84" value="return" style="ellipse;whiteSpace=wrap;html=1;" vertex="1" parent="1">
          <mxGeometry x="336" y="856" width="120" height="55" as="geometry" />
        </mxCell>
      </root>
    </mxGraphModel>
  </diagram>
</mxfile>
